PathFileType	4	(X/Y/Z)	G:\GRF\jawan data\CompiledGRF\03. Mohit Kumar\0231~ac~Standing_markers.trc
DataRate	CameraRate	NumFrames	NumMarkers	Units	OrigDataRate	OrigDataStartFrame	OrigNumFrames
100.000000	100.000000	10	18	mm	100.000000	438	584
Frame#	Time	c7			r should			l should			sacrum			r asis			r bar 1			r knee 1			r bar 2			r mall			r heel			r met			l asis			l bar 1			l knee 1			l bar 2			l mall			l heel			l met			
		X1	Y1	Z1	X2	Y2	Z2	X3	Y3	Z3	X4	Y4	Z4	X5	Y5	Z5	X6	Y6	Z6	X7	Y7	Z7	X8	Y8	Z8	X9	Y9	Z9	X10	Y10	Z10	X11	Y11	Z11	X12	Y12	Z12	X13	Y13	Z13	X14	Y14	Z14	X15	Y15	Z15	X16	Y16	Z16	X17	Y17	Z17	X18	Y18	Z18	

439	4.38	318.6276550292969	1519.070190429688	155.0997924804688	407.1414489746094	1458.959594726563	324.799560546875	403.2912292480469	1471.799560546875	-14.7557201385498	288.462890625	1058.698364257813	137.527587890625	465.8195190429688	1016.610961914063	269.5198059082031	350.3410339355469	612.4963989257813	334.4092102050781	359.9640808105469	524.2882080078125	283.3409423828125	289.6632385253906	202.2721099853516	303.0848693847656	303.0202331542969	75.66170501708984	241.5990447998047	251.51953125	38.90100860595703	189.7032928466797	453.5463562011719	38.63881683349609	253.2553100585938	474.821533203125	1023.893371582031	16.74084281921387	358.1044616699219	607.085205078125	-39.02735900878906	360.2554321289063	518.091796875	18.99724769592285	294.4283752441406	245.1376953125	-18.12249374389648	300.0180053710938	75.88314819335938	57.89008712768555	247.1466369628906	34.74900054931641	117.2377319335938	447.5991516113281	39.38325881958008	58.08195495605469	
440	4.39	318.8604431152344	1519.046142578125	155.1535186767578	407.3384704589844	1458.910766601563	324.8505249023438	403.4151000976563	1471.810546875	-14.72852039337158	288.6434020996094	1058.706909179688	137.5546722412109	465.8582458496094	1016.57177734375	269.5559387207031	350.3099060058594	612.4755249023438	334.441650390625	359.9560241699219	524.3047485351563	283.3690795898438	289.6830139160156	202.2625274658203	303.1075744628906	303.0274658203125	75.67433929443359	241.5815124511719	251.5776824951172	38.92375183105469	189.6809539794922	453.6270446777344	38.62318801879883	253.2720031738281	474.972900390625	1023.891784667969	16.75950241088867	358.2422790527344	607.0996704101563	-39.00135803222656	360.41455078125	518.171630859375	19.05501174926758	294.4781188964844	245.1945190429688	-18.11107063293457	300.1103515625	75.82344055175781	57.92481994628906	247.1247253417969	34.8065299987793	117.1959075927734	447.7247619628906	39.42303085327148	57.97091293334961	
441	4.4	318.9315185546875	1519.06103515625	155.1776580810547	407.4960632324219	1458.863403320313	324.922607421875	403.573974609375	1471.799438476563	-14.67054843902588	288.8649597167969	1058.709594726563	137.6016845703125	466.0523681640625	1016.559020996094	269.6091918945313	350.3207397460938	612.4445190429688	334.4961242675781	359.7477111816406	524.2840576171875	283.4207153320313	289.7686462402344	202.2231140136719	303.1412353515625	302.9940795898438	75.66558837890625	241.5767059326172	251.9016265869141	38.80184555053711	189.6950225830078	453.6293029785156	38.6049690246582	253.2696685791016	474.9678344726563	1023.80322265625	16.81031799316406	358.40869140625	607.0753784179688	-38.97053909301758	360.4834594726563	518.1897583007813	19.05301856994629	294.4442138671875	245.1641845703125	-18.10543251037598	300.0506286621094	75.84329986572266	57.90073394775391	247.123779296875	34.82476425170898	117.2191772460938	447.5099487304688	39.38747406005859	58.07793045043945	
442	4.41	319.0297546386719	1519.049682617188	155.1974029541016	407.6277465820313	1458.848754882813	324.9747009277344	403.80810546875	1471.76904296875	-14.59279632568359	289.0196228027344	1058.711303710938	137.6280212402344	466.3067016601563	1016.481872558594	269.6289367675781	350.3372802734375	612.4522705078125	334.4986267089844	359.7470703125	524.2702026367188	283.4368591308594	289.7103881835938	202.2498321533203	303.1609802246094	302.962890625	75.63871002197266	241.6133575439453	252.0009002685547	38.74398040771484	189.763671875	453.6017456054688	38.61409759521484	253.2575073242188	475.1900024414063	1023.763549804688	16.85345077514648	358.4060668945313	607.0338134765625	-38.93595886230469	360.5355834960938	518.2166137695313	19.0322208404541	294.4380493164063	245.1660614013672	-18.0947265625	300.059326171875	75.85322570800781	57.92536163330078	247.1438598632813	34.74682235717773	117.2690887451172	447.5042724609375	39.41489028930664	58.20770645141602	
443	4.42	318.9983825683594	1519.119018554688	155.2710723876953	407.8433532714844	1458.821411132813	325.042236328125	403.87939453125	1471.771850585938	-14.5604772567749	289.109375	1058.741577148438	137.6361999511719	466.5867614746094	1016.497741699219	269.6723327636719	350.3385314941406	612.4703369140625	334.5060729980469	359.7122497558594	524.2823486328125	283.435791015625	289.6078796386719	202.3115081787109	303.16259765625	302.9538879394531	75.61105346679688	241.6204223632813	252.0431213378906	38.68602752685547	189.7774047851563	453.6236572265625	38.6149787902832	253.2711334228516	475.2681579589844	1023.727416992188	16.86974906921387	358.3047485351563	607.025390625	-38.92705535888672	360.5599060058594	518.228759765625	19.06406593322754	294.4512939453125	245.1870422363281	-18.02310180664063	300.077392578125	75.86361694335938	57.95224380493164	247.2234649658203	34.76310348510742	117.2843627929688	447.7178344726563	39.43443298339844	58.03872680664063	
444	4.43	319.0173645019531	1519.17529296875	155.3398742675781	407.9862365722656	1458.776977539063	325.0872802734375	403.7495422363281	1471.8681640625	-14.50490665435791	289.2060241699219	1058.792846679688	137.6690063476563	466.707763671875	1016.49365234375	269.6771545410156	350.2632751464844	612.482421875	334.5018615722656	359.7567443847656	524.2791748046875	283.425537109375	289.6314086914063	202.2733459472656	303.1548156738281	302.9881286621094	75.66347503662109	241.6047058105469	251.5952911376953	38.92498397827148	189.7371368408203	453.6303100585938	38.64002227783203	253.2574462890625	475.4483642578125	1023.633728027344	16.89281463623047	358.2697448730469	607.0575561523438	-38.89569473266602	360.593505859375	518.2373657226563	19.07850456237793	294.5138854980469	245.223876953125	-18.01152610778809	300.0914306640625	75.82831573486328	57.95458602905273	247.7671966552734	34.58246994018555	117.2982864379883	447.7437133789063	39.41884613037109	58.05752944946289	
445	4.44	319.1475524902344	1519.17138671875	155.3966674804688	408.2445983886719	1458.747802734375	325.1114807128906	403.8543701171875	1471.88916015625	-14.46836471557617	289.4228515625	1058.832275390625	137.6771545410156	466.4838256835938	1016.37890625	269.681640625	350.3169250488281	612.4693603515625	334.5522766113281	359.7899169921875	524.292724609375	283.4470520019531	289.720703125	202.2530212402344	303.1656799316406	303.0179138183594	75.75760650634766	241.6040191650391	251.6310272216797	38.90627288818359	189.6755828857422	453.6561279296875	38.6174201965332	253.284423828125	475.5745239257813	1023.602233886719	16.94407272338867	358.4294738769531	607.0787963867188	-38.89360046386719	360.4539794921875	518.1372680664063	19.12368774414063	294.5608520507813	245.2406311035156	-18.04222679138184	300.0341796875	75.83820343017578	57.98098373413086	248.1317443847656	34.39499282836914	117.2805786132813	447.7026062011719	39.41153717041016	58.01535797119141	
446	4.45	319.3153076171875	1519.166137695313	155.4350433349609	408.4597778320313	1458.720092773438	325.1712341308594	404.0845031738281	1471.849609375	-14.3898811340332	289.6248779296875	1058.84912109375	137.6793975830078	466.6925964355469	1016.415100097656	269.7051391601563	350.4222106933594	612.4606323242188	334.587158203125	359.6795043945313	524.2623291015625	283.4795532226563	289.7301940917969	202.2460327148438	303.1693115234375	303.0325622558594	75.75019073486328	241.5856018066406	251.8886871337891	38.76311111450195	189.6575927734375	453.6645202636719	38.61053466796875	253.3020629882813	475.7965698242188	1023.618713378906	16.98053359985352	358.56396484375	607.0997924804688	-38.85607528686523	360.3915710449219	518.1088256835938	19.18498611450195	294.55224609375	245.2256011962891	-18.0584716796875	300.0162963867188	75.89159393310547	57.95210647583008	247.4144592285156	34.70060348510742	117.2587814331055	447.5625915527344	39.39169692993164	58.01508331298828	
447	4.46	319.6372985839844	1519.148071289063	155.4759216308594	408.6678466796875	1458.7001953125	325.22607421875	404.2498168945313	1471.87451171875	-14.32855415344238	289.92138671875	1058.807006835938	137.6688842773438	466.8815612792969	1016.398803710938	269.7249450683594	350.4047546386719	612.4554443359375	334.5583190917969	359.689697265625	524.224609375	283.48779296875	289.7600402832031	202.2426605224609	303.1346435546875	302.9668884277344	75.69286346435547	241.5595703125	252.0216979980469	38.73266983032227	189.6985626220703	453.6573486328125	38.64351272583008	253.2678527832031	476.0361938476563	1023.653015136719	17.07182312011719	358.60693359375	607.0924072265625	-38.84223175048828	360.5914611816406	518.1845092773438	19.18423843383789	294.613525390625	245.2473449707031	-18.06202697753906	300.1979064941406	75.87935638427734	57.89755249023438	247.2739868164063	34.7841911315918	117.2658538818359	447.5650634765625	39.37729644775391	58.02733612060547	
448	4.47	319.8842468261719	1519.153442382813	155.5635070800781	408.6378173828125	1458.674682617188	325.2902221679688	404.5885314941406	1471.845458984375	-14.26316452026367	290.0511474609375	1058.85302734375	137.7077026367188	467.0738220214844	1016.389709472656	269.7862243652344	350.4972534179688	612.4520263671875	334.5580749511719	359.65185546875	524.1981201171875	283.5198059082031	289.743408203125	202.2949523925781	303.1405944824219	302.9801940917969	75.69562530517578	241.5780792236328	252.0602569580078	38.71817779541016	189.7313842773438	453.6623229980469	38.64110946655273	253.2410888671875	476.1965942382813	1023.635375976563	17.12242889404297	358.5977783203125	607.0814819335938	-38.85776519775391	360.6903076171875	518.1821899414063	19.16303825378418	294.5958251953125	245.2742004394531	-18.07803916931152	300.2598266601563	75.83509826660156	57.90069580078125	247.5312042236328	34.61948776245117	117.3008346557617	447.67431640625	39.38051223754883	58.03382873535156	
